Coordinates
version=1
nRows=24
nColumns=24
inDegrees=yes

Units are S.I. units (second, meters, Newtons, ...)
Angles are in degrees.

endheader
time	pelvis_tilt	pelvis_list	pelvis_rotation	pelvis_tx	pelvis_ty	pelvis_tz	hip_flexion_r	hip_adduction_r	hip_rotation_r	knee_angle_r	ankle_angle_r	subtalar_angle_r	mtp_angle_r	hip_flexion_l	hip_adduction_l	hip_rotation_l	knee_angle_l	ankle_angle_l	subtalar_angle_l	mtp_angle_l	lumbar_extension	lumbar_bending	lumbar_rotation
      0.48800000	     -2.29087272	     -0.73453777	      6.23799511	     -0.79103390	      1.01781939	      0.31868487	     20.27239076	      1.41477145	     -9.89553106	      4.92919950	     -0.51067890	     -2.81803428	      5.05158196	    -10.67089401	      2.92420932	      9.03023460	    -10.93483638	     12.95452715	     -8.52836529	     -4.50834059	     -4.64301730	     -2.11112211	     -5.72973703
      0.49216667	     -2.26281022	     -0.82669551	      6.28368906	     -0.78523337	      1.01720923	      0.31877796	     20.32244075	      1.56568375	     -9.80045179	      4.53926666	     -0.56677719	     -2.90830474	      5.06063343	    -10.73323091	      2.81582607	      9.04271330	    -11.55646614	     12.99446567	     -8.56304454	     -4.50282132	     -4.64717623	     -1.98069636	     -5.71437366
      0.49633333	     -2.30364359	     -0.91266909	      6.32532742	     -0.77940922	      1.01649647	      0.31887781	     20.43394109	      1.70279238	     -9.55305870	      4.11992375	     -0.79917637	     -3.31604271	      5.13860159	    -10.65417174	      2.70911893	      8.84332891	    -12.32262596	     13.20569719	     -8.15931405	     -4.44557492	     -4.52198284	     -1.85464505	     -5.68315525
      0.50050000	     -2.26705364	     -1.02799675	      6.36619535	     -0.77351122	      1.01593396	      0.31895843	     20.46195218	      1.87701931	     -9.33083975	      3.64473105	     -1.05293292	     -3.72445663	      5.25045014	    -10.66139185	      2.57031578	      8.71741784	    -13.07963515	     13.31979554	     -7.93522042	     -4.35708428	     -4.50086261	     -1.67505346	     -5.65737920
      0.50466667	     -2.24890676	     -1.13389405	      6.40435829	     -0.76760645	      1.01537914	      0.31903240	     20.52230938	      2.03496059	     -9.09168626	      3.09508818	     -1.35099512	     -4.18706507	      5.38619000	    -10.62643864	      2.44781407	      8.59283970	    -13.88217248	     13.38183755	     -7.74404194	     -4.24033036	     -4.45424647	     -1.51293639	     -5.63813923
      0.50883333	     -2.19004056	     -1.27589076	      6.44891572	     -0.76162929	      1.01492354	      0.31907528	     20.52735427	      2.23152182	     -8.84864121	      2.52857455	     -1.71478967	     -4.69422844	      5.52676936	    -10.61440438	      2.28060302	      8.45362625	    -14.71712528	     13.42347815	     -7.53407748	     -4.10565751	     -4.43962290	     -1.27080291	     -5.61814328
      0.51300000	     -2.17169200	     -1.39512120	      6.48069708	     -0.75565133	      1.01442347	      0.31914895	     20.59616705	      2.40087480	     -8.58904572	      1.88394745	     -2.10249943	     -5.25585903	      5.66709475	    -10.53199205	      2.14439557	      8.28626337	    -15.60797563	     13.41323529	     -7.33915792	     -3.95807547	     -4.37544753	     -1.08639287	     -5.60217185
      0.51716667	     -2.06790348	     -1.50712475	      6.51690721	     -0.74966021	      1.01409111	      0.31923773	     20.55547133	      2.57628599	     -8.27708397	      1.24886795	     -2.59551747	     -5.98414722	      5.89182169	    -10.51433773	      1.99690360	      8.05994564	    -16.54550649	     13.42182305	     -7.03382868	     -3.69416821	     -4.42963282	     -0.93036643	     -5.57795672
      0.52133333	     -2.03401852	     -1.64671726	      6.55505526	     -0.74360265	      1.01368419	      0.31928993	     20.60009254	      2.76341335	     -8.02022363	      0.56507964	     -3.07163183	     -6.56870692	      6.05380199	    -10.40354829	      1.83446346	      7.87917380	    -17.51698738	     13.28963829	     -6.85290017	     -3.48023468	     -4.36744821	     -0.68845904	     -5.56271372
      0.52550000	     -1.93513154	     -1.75876265	      6.59029384	     -0.73756213	      1.01341748	      0.31939801	     20.56829605	      2.93823576	     -7.69473500	     -0.12567853	     -3.62501278	     -7.37664508	      6.28164653	    -10.33307279	      1.67991170	      7.61854865	    -18.53369616	     13.22413759	     -6.53995739	     -3.13445836	     -4.40071804	     -0.52845538	     -5.54194982
      0.52966667	     -1.86123138	     -1.88803456	      6.62809312	     -0.73147207	      1.01315069	      0.31949977	     20.56212440	      3.12512162	     -7.39470537	     -0.83226683	     -4.18446760	     -8.11841581	      6.50621336	    -10.21236291	      1.50729763	      7.35155925	    -19.58887017	     13.04726168	     -6.26548962	     -2.74025670	     -4.39233635	     -0.32500545	     -5.52197122
      0.53383333	     -1.75151253	     -2.01966252	      6.66465238	     -0.72536212	      1.01297831	      0.31961891	     20.51147964	      3.32012625	     -7.09505524	     -1.54072864	     -4.75536040	     -8.86627788	      6.72291373	    -10.10618570	      1.31886727	      7.04871982	    -20.67735093	     12.80435917	     -5.97627272	     -2.28566847	     -4.42266917	     -0.11165046	     -5.50023087
      0.53800000	     -1.67763954	     -2.14463476	      6.70209680	     -0.71923846	      1.01279428	      0.31976122	     20.50478142	      3.50283587	     -6.80817001	     -2.27656951	     -5.30202357	     -9.58481084	      6.91950349	     -9.93325906	      1.13470818	      6.73398699	    -21.81234637	     12.49477369	     -5.69732317	     -1.78393565	     -4.40757958	      0.08263346	     -5.48121461
      0.54216667	     -1.53643780	     -2.27621771	      6.74092029	     -0.71306696	      1.01276984	      0.31990477	     20.41165847	      3.69964323	     -6.54947319	     -2.99567868	     -5.83158371	    -10.25205529	      8.54811587	     -9.83094495	      0.92933925	      6.42713004	    -22.91192734	     11.90217829	     -5.58999428	      3.27825518	     -4.46469432	      0.30735467	     -5.43940366
      0.54633333	     -1.45392534	     -2.39281567	      6.77773352	     -0.70692856	      1.01269381	      0.32009653	     20.40079724	      3.87234065	     -6.32026502	     -3.76806987	     -6.28747496	    -10.82277591	      8.52662738	     -9.60862134	      0.72569969	      6.02349722	    -24.12350770	     11.50657257	     -5.19057257	      3.36679541	     -4.46361012	      0.48028692	     -5.43432552
      0.55050000	     -1.31910285	     -2.52383795	      6.81559966	     -0.70075697	      1.01275197	      0.32031256	     20.30920429	      4.07290162	     -6.05782780	     -4.49844099	     -6.74323436	    -11.47037352	      8.49236488	     -9.42651181	      0.49170166	      5.62000101	    -25.34882377	     10.97533735	     -4.87285538	      3.55033636	     -4.51800131	      0.68361817	     -5.40037383
      0.55466667	     -1.18995057	     -2.64420217	      6.84862499	     -0.69458383	      1.01283387	      0.32056674	     20.22519235	      4.26360105	     -5.80649137	     -5.24554360	     -7.12237355	    -12.05544629	      8.44491221	     -9.21364338	      0.25708801	      5.18967762	    -26.60119671	     10.37869701	     -4.55375491	      3.82399929	     -4.56731381	      0.86777273	     -5.36325912
      0.55883333	     -1.03537263	     -2.75692592	      6.88999406	     -0.68839191	      1.01303943	      0.32083045	     20.09764470	      4.44851163	     -5.57645107	     -5.97394011	     -7.43528389	    -12.58843897	      7.81667737	     -9.01652427	      0.01882252	      4.78469944	    -27.83723535	      9.51289982	     -4.37523512	      7.71438493	     -4.64782558	      1.02986030	     -5.32912765
      0.56300000	     -0.89795040	     -2.89644046	      6.92671555	     -0.68219773	      1.01323361	      0.32111826	     20.00147536	      4.65548719	     -5.41324661	     -6.73590932	     -7.61645021	    -12.97039338	      7.79701969	     -8.75333536	     -0.26800931	      4.30180079	    -29.15808599	      8.77526410	     -4.04197938	      7.80120869	     -4.69947935	      1.24747450	     -5.29213559
      0.56716667	     -0.76005679	     -3.01486847	      6.95608598	     -0.67601482	      1.01347689	      0.32145426	     19.89150935	      4.84810402	     -5.22007905	     -7.48033983	     -7.76994799	    -13.39248258	      7.75041373	     -8.47461818	     -0.53911512	      3.83313820	    -30.48819534	      7.89440404	     -3.78098659	      7.98941317	     -4.75680684	      1.42047728	     -5.23964186
      0.57133333	     -0.52644551	     -3.14580342	      7.00001092	     -0.66980363	      1.01393630	      0.32178558	     19.63823184	      5.07001872	     -5.01424667	     -8.15081383	     -7.87700097	    -13.85157598	      7.07006056	     -8.29025323	     -0.84497950	      3.39084680	    -31.78892824	      6.79307491	     -3.67614657	     10.73809955	     -4.93697395	      1.62821210	     -5.18636208
      0.57550000	     -0.41085261	     -3.25981745	      7.02771088	     -0.66363760	      1.01422732	      0.32216669	     19.55713936	      5.24739652	     -4.93777462	     -8.93039840	     -7.79161084	    -13.98839663	      7.04958116	     -7.92405944	     -1.14072666	      2.88087931	    -33.18482051	      5.76933888	     -3.38167352	     10.82241212	     -4.96207400	      1.77929199	     -5.14780027
      0.57966667	     -0.22371075	     -3.38787233	      7.07462268	     -0.65745086	      1.01469905	      0.32252741	     19.35477379	      5.44970984	     -4.85666082	     -9.62250054	     -7.67851960	    -14.16514276	      7.03247795	     -7.62275827	     -1.46807459	      2.41223827	    -34.56439019	      4.59497900	     -3.20427436	     10.87460730	     -5.07485743	      1.96340087	     -5.11578918
      0.58383333	     -0.04407354	     -3.51355966	      7.10517541	     -0.65128302	      1.01517957	      0.32294270	     19.15133120	      5.65801210	     -4.75985828	    -10.30296526	     -7.51326795	    -14.33914201	      7.00475110	     -7.28819664	     -1.80309977	      1.92786827	    -35.96614431	      3.35990815	     -3.04390234	     10.95269206	     -5.18778334	      2.13550047	     -5.06866125
